# xmcd CD database file
#
# Track frame offsets:
#	150
#	19570
#	39320
#	63860
#
# Disc length: 1106 seconds
#
# Revision: 0
# Processed by: cddbd v1.5.1PL0 Copyright (c) Steve Scherf et al.
# Submitted via: CDex 1.51
#
DISCID=23045004
DTITLE=リュ・シウォン - ひまわりのRhapsody
DYEAR=2005
DGENRE=Pop
TTITLE0=ひまわりのRhapsody
TTITLE1=恋花火
TTITLE2=僕の名前を呼び捨てにしなかった君
TTITLE3=ひまわりのRhapsody（Instrumental）
EXTD=YEAR: 2005
EXTT0=
EXTT1=
EXTT2=
EXTT3=
PLAYORDER=
